<svg width="31" height="19" viewBox="0 0 31 19" fill="none" xmlns="http://www.w3.org/2000/svg">
<path fill-rule="evenodd" clip-rule="evenodd" d="M15.9501 5.52078L23.9547 0.329578C24.6475 -0.119543 25.7708 -0.119543 26.4637 0.329578C27.1565 0.778929 27.1565 1.50734 26.4637 1.95667L17.6824 7.65151C17.2004 7.96429 16.51 8.05945 15.9012 7.93701C15.3209 8.03069 14.6814 7.93044 14.2278 7.63626L5.50532 1.97946C4.81705 1.53275 4.81705 0.809426 5.50532 0.363181C6.19344 -0.0832725 7.30922 -0.0832725 7.99738 0.363181L15.9501 5.52078ZM15.9322 15.5912L26.8474 8.45334C27.7921 7.83549 29.3239 7.83549 30.2686 8.45334C31.2134 9.07098 31.2134 10.0727 30.2686 10.6905L18.2942 18.5211C17.6369 18.951 16.6955 19.0817 15.8653 18.9135C15.074 19.0423 14.202 18.9045 13.5833 18.5001L1.68905 10.7215C0.750621 10.1081 0.750621 9.11321 1.68905 8.49934C2.62745 7.8857 4.14896 7.8857 5.08736 8.49934L15.9322 15.5912Z" fill="white"/>
</svg>
